<mxfile host="app.diagrams.net" modified="2022-03-05T16:02:53.748Z" agent="5.0 (Windows NT 10.0; Win64; x64) AppleWebKit/537.36 (KHTML, like Gecko) Chrome/97.0.4692.71 Safari/537.36" etag="JrHG6dG1hzl9v2KiYOzU" version="16.6.2" type="github">
  <diagram name="Page-1" id="e56a1550-8fbb-45ad-956c-1786394a9013">
    <mxGraphModel dx="3812" dy="-712" grid="1" gridSize="10" guides="1" tooltips="1" connect="1" arrows="1" fold="1" page="1" pageScale="1" pageWidth="1100" pageHeight="850" background="none" math="0" shadow="0">
      <root>
        <mxCell id="0" />
        <mxCell id="1" parent="0" />
        <mxCell id="jYgsmMBTekUpaIYiXiGc-63" style="edgeStyle=orthogonalEdgeStyle;rounded=0;orthogonalLoop=1;jettySize=auto;html=1;fontFamily=Courier New;fontSize=20;" edge="1" parent="1" source="jYgsmMBTekUpaIYiXiGc-41">
          <mxGeometry relative="1" as="geometry">
            <mxPoint x="-1330" y="1960" as="targetPoint" />
          </mxGeometry>
        </mxCell>
        <mxCell id="jYgsmMBTekUpaIYiXiGc-41" value="&lt;font style=&quot;font-size: 20px ; line-height: 1.4&quot; face=&quot;Courier New&quot;&gt;&lt;b&gt;Phase II&lt;/b&gt;&lt;/font&gt;" style="rounded=0;whiteSpace=wrap;html=1;strokeWidth=1;" vertex="1" parent="1">
          <mxGeometry x="-1580" y="1930" width="120" height="60" as="geometry" />
        </mxCell>
        <mxCell id="jYgsmMBTekUpaIYiXiGc-43" value="&lt;font style=&quot;font-size: 20px ; line-height: 1.4&quot; face=&quot;Courier New&quot;&gt;&lt;b&gt;LabelTable&lt;/b&gt;&lt;/font&gt;" style="rounded=0;whiteSpace=wrap;html=1;strokeWidth=1;" vertex="1" parent="1">
          <mxGeometry x="-1030" y="2075" width="170" height="60" as="geometry" />
        </mxCell>
        <mxCell id="jYgsmMBTekUpaIYiXiGc-61" style="edgeStyle=orthogonalEdgeStyle;rounded=0;orthogonalLoop=1;jettySize=auto;html=1;entryX=0.5;entryY=0;entryDx=0;entryDy=0;fontFamily=Courier New;fontSize=20;" edge="1" parent="1" source="jYgsmMBTekUpaIYiXiGc-44" target="jYgsmMBTekUpaIYiXiGc-43">
          <mxGeometry relative="1" as="geometry" />
        </mxCell>
        <mxCell id="jYgsmMBTekUpaIYiXiGc-62" style="edgeStyle=orthogonalEdgeStyle;rounded=0;orthogonalLoop=1;jettySize=auto;html=1;entryX=0.5;entryY=0;entryDx=0;entryDy=0;fontFamily=Courier New;fontSize=20;" edge="1" parent="1" source="jYgsmMBTekUpaIYiXiGc-44" target="jYgsmMBTekUpaIYiXiGc-51">
          <mxGeometry relative="1" as="geometry" />
        </mxCell>
        <mxCell id="jYgsmMBTekUpaIYiXiGc-44" value="&lt;font style=&quot;font-size: 20px ; line-height: 1.4&quot; face=&quot;Courier New&quot;&gt;&lt;b&gt;Phase I&lt;/b&gt;&lt;/font&gt;" style="rounded=0;whiteSpace=wrap;html=1;strokeWidth=1;" vertex="1" parent="1">
          <mxGeometry x="-1325" y="1930" width="120" height="60" as="geometry" />
        </mxCell>
        <mxCell id="jYgsmMBTekUpaIYiXiGc-45" value="&lt;font style=&quot;font-size: 20px ; line-height: 1.4&quot; face=&quot;Courier New&quot;&gt;&lt;b&gt;translator base&lt;br&gt;&lt;/b&gt;&lt;/font&gt;" style="rounded=0;whiteSpace=wrap;html=1;strokeWidth=1;" vertex="1" parent="1">
          <mxGeometry x="-1530" y="2220" width="250" height="60" as="geometry" />
        </mxCell>
        <mxCell id="jYgsmMBTekUpaIYiXiGc-46" value="&lt;font style=&quot;font-size: 20px ; line-height: 1.4&quot; face=&quot;Courier New&quot;&gt;&lt;b&gt;registers&lt;/b&gt;&lt;/font&gt;" style="rounded=0;whiteSpace=wrap;html=1;strokeWidth=1;" vertex="1" parent="1">
          <mxGeometry x="-1530" y="2310" width="250" height="60" as="geometry" />
        </mxCell>
        <mxCell id="jYgsmMBTekUpaIYiXiGc-55" style="edgeStyle=orthogonalEdgeStyle;rounded=0;orthogonalLoop=1;jettySize=auto;html=1;exitX=0;exitY=0.25;exitDx=0;exitDy=0;entryX=1;entryY=0.5;entryDx=0;entryDy=0;fontFamily=Courier New;fontSize=20;" edge="1" parent="1" source="jYgsmMBTekUpaIYiXiGc-47" target="jYgsmMBTekUpaIYiXiGc-45">
          <mxGeometry relative="1" as="geometry" />
        </mxCell>
        <mxCell id="jYgsmMBTekUpaIYiXiGc-56" style="edgeStyle=orthogonalEdgeStyle;rounded=0;orthogonalLoop=1;jettySize=auto;html=1;exitX=0;exitY=0.75;exitDx=0;exitDy=0;entryX=1;entryY=0.5;entryDx=0;entryDy=0;fontFamily=Courier New;fontSize=20;" edge="1" parent="1" source="jYgsmMBTekUpaIYiXiGc-47" target="jYgsmMBTekUpaIYiXiGc-46">
          <mxGeometry relative="1" as="geometry" />
        </mxCell>
        <mxCell id="jYgsmMBTekUpaIYiXiGc-47" value="&lt;font style=&quot;font-size: 20px ; line-height: 1.4&quot; face=&quot;Courier New&quot;&gt;&lt;b&gt;Instructions&lt;/b&gt;&lt;/font&gt;" style="rounded=0;whiteSpace=wrap;html=1;strokeWidth=1;" vertex="1" parent="1">
          <mxGeometry x="-1200" y="2260" width="200" height="60" as="geometry" />
        </mxCell>
        <mxCell id="jYgsmMBTekUpaIYiXiGc-48" value="&lt;font style=&quot;font-size: 20px ; line-height: 1.4&quot; face=&quot;Courier New&quot;&gt;&lt;b&gt;Arithmetics tools&lt;/b&gt;&lt;/font&gt;" style="rounded=0;whiteSpace=wrap;html=1;strokeWidth=1;" vertex="1" parent="1">
          <mxGeometry x="-1390" y="2070" width="250" height="70" as="geometry" />
        </mxCell>
        <mxCell id="jYgsmMBTekUpaIYiXiGc-51" value="" style="rounded=0;whiteSpace=wrap;html=1;fontFamily=Courier New;fontSize=20;strokeWidth=1;fillColor=none;" vertex="1" parent="1">
          <mxGeometry x="-1400" y="2030" width="270" height="120" as="geometry" />
        </mxCell>
        <mxCell id="jYgsmMBTekUpaIYiXiGc-53" value="utils" style="text;html=1;strokeColor=none;fillColor=none;align=center;verticalAlign=middle;whiteSpace=wrap;rounded=0;fontFamily=Courier New;fontSize=20;" vertex="1" parent="1">
          <mxGeometry x="-1390" y="2030" width="60" height="30" as="geometry" />
        </mxCell>
        <mxCell id="jYgsmMBTekUpaIYiXiGc-60" style="edgeStyle=orthogonalEdgeStyle;rounded=0;orthogonalLoop=1;jettySize=auto;html=1;exitX=1;exitY=0.5;exitDx=0;exitDy=0;entryX=0.5;entryY=1;entryDx=0;entryDy=0;fontFamily=Courier New;fontSize=20;dashed=1;endArrow=blockThin;endFill=0;" edge="1" parent="1" source="jYgsmMBTekUpaIYiXiGc-57" target="jYgsmMBTekUpaIYiXiGc-43">
          <mxGeometry relative="1" as="geometry" />
        </mxCell>
        <mxCell id="jYgsmMBTekUpaIYiXiGc-64" style="edgeStyle=orthogonalEdgeStyle;rounded=0;orthogonalLoop=1;jettySize=auto;html=1;entryX=0.5;entryY=1;entryDx=0;entryDy=0;fontFamily=Courier New;fontSize=20;dashed=1;endArrow=blockThin;endFill=0;" edge="1" parent="1" source="jYgsmMBTekUpaIYiXiGc-57" target="jYgsmMBTekUpaIYiXiGc-51">
          <mxGeometry relative="1" as="geometry" />
        </mxCell>
        <mxCell id="jYgsmMBTekUpaIYiXiGc-57" value="" style="rounded=0;whiteSpace=wrap;html=1;fontFamily=Courier New;fontSize=20;strokeWidth=1;fillColor=none;" vertex="1" parent="1">
          <mxGeometry x="-1540" y="2180" width="550" height="200" as="geometry" />
        </mxCell>
        <mxCell id="jYgsmMBTekUpaIYiXiGc-59" value="Core" style="text;html=1;strokeColor=none;fillColor=none;align=center;verticalAlign=middle;whiteSpace=wrap;rounded=0;fontFamily=Courier New;fontSize=20;" vertex="1" parent="1">
          <mxGeometry x="-1530" y="2180" width="60" height="30" as="geometry" />
        </mxCell>
        <mxCell id="jYgsmMBTekUpaIYiXiGc-66" value="" style="endArrow=classic;html=1;rounded=0;dashed=1;fontFamily=Courier New;fontSize=20;entryX=0;entryY=0.5;entryDx=0;entryDy=0;" edge="1" parent="1" target="jYgsmMBTekUpaIYiXiGc-41">
          <mxGeometry width="50" height="50" relative="1" as="geometry">
            <mxPoint x="-1660" y="1960" as="sourcePoint" />
            <mxPoint x="-1670" y="1950" as="targetPoint" />
          </mxGeometry>
        </mxCell>
        <mxCell id="jYgsmMBTekUpaIYiXiGc-67" value="&lt;font style=&quot;font-size: 11px&quot;&gt;&lt;b&gt;API&lt;/b&gt;&lt;/font&gt;" style="text;html=1;strokeColor=none;fillColor=none;align=center;verticalAlign=top;whiteSpace=wrap;rounded=0;fontFamily=Courier New;fontSize=20;horizontal=1;labelPosition=center;verticalLabelPosition=bottom;" vertex="1" parent="1">
          <mxGeometry x="-1680" y="1900" width="60" height="30" as="geometry" />
        </mxCell>
        <mxCell id="jYgsmMBTekUpaIYiXiGc-71" value="" style="endArrow=classic;html=1;rounded=0;fontFamily=Courier New;fontSize=11;startArrow=none;entryX=0;entryY=0.5;entryDx=0;entryDy=0;" edge="1" parent="1" source="jYgsmMBTekUpaIYiXiGc-73" target="jYgsmMBTekUpaIYiXiGc-72">
          <mxGeometry width="50" height="50" relative="1" as="geometry">
            <mxPoint x="-1430" y="2449.62" as="sourcePoint" />
            <mxPoint x="-1370" y="2449.62" as="targetPoint" />
          </mxGeometry>
        </mxCell>
        <mxCell id="jYgsmMBTekUpaIYiXiGc-72" value="&lt;b&gt;B&lt;/b&gt;" style="text;html=1;strokeColor=none;fillColor=none;align=center;verticalAlign=middle;whiteSpace=wrap;rounded=0;fontFamily=Courier New;fontSize=11;" vertex="1" parent="1">
          <mxGeometry x="-1350" y="2437.5" width="20" height="25" as="geometry" />
        </mxCell>
        <mxCell id="jYgsmMBTekUpaIYiXiGc-73" value="&lt;b&gt;A&lt;/b&gt;" style="text;html=1;strokeColor=none;fillColor=none;align=center;verticalAlign=middle;whiteSpace=wrap;rounded=0;fontFamily=Courier New;fontSize=11;" vertex="1" parent="1">
          <mxGeometry x="-1450" y="2437.5" width="20" height="25" as="geometry" />
        </mxCell>
        <mxCell id="jYgsmMBTekUpaIYiXiGc-75" value="&lt;font style=&quot;font-size: 11px&quot;&gt;&lt;b&gt;: A relies on B&lt;/b&gt;&lt;/font&gt;" style="text;html=1;strokeColor=none;fillColor=none;align=center;verticalAlign=middle;whiteSpace=wrap;rounded=0;fontFamily=Courier New;fontSize=11;" vertex="1" parent="1">
          <mxGeometry x="-1350" y="2435" width="150" height="30" as="geometry" />
        </mxCell>
        <mxCell id="jYgsmMBTekUpaIYiXiGc-76" value="" style="endArrow=blockThin;html=1;rounded=0;fontFamily=Courier New;fontSize=11;startArrow=none;entryX=0;entryY=0.5;entryDx=0;entryDy=0;dashed=1;endFill=0;" edge="1" parent="1" source="jYgsmMBTekUpaIYiXiGc-78" target="jYgsmMBTekUpaIYiXiGc-77">
          <mxGeometry width="50" height="50" relative="1" as="geometry">
            <mxPoint x="-1430" y="2482.12" as="sourcePoint" />
            <mxPoint x="-1370" y="2482.12" as="targetPoint" />
          </mxGeometry>
        </mxCell>
        <mxCell id="jYgsmMBTekUpaIYiXiGc-77" value="&lt;b&gt;B&lt;/b&gt;" style="text;html=1;strokeColor=none;fillColor=none;align=center;verticalAlign=middle;whiteSpace=wrap;rounded=0;fontFamily=Courier New;fontSize=11;" vertex="1" parent="1">
          <mxGeometry x="-1350" y="2470" width="20" height="25" as="geometry" />
        </mxCell>
        <mxCell id="jYgsmMBTekUpaIYiXiGc-78" value="&lt;b&gt;A&lt;/b&gt;" style="text;html=1;strokeColor=none;fillColor=none;align=center;verticalAlign=middle;whiteSpace=wrap;rounded=0;fontFamily=Courier New;fontSize=11;" vertex="1" parent="1">
          <mxGeometry x="-1450" y="2470" width="20" height="25" as="geometry" />
        </mxCell>
        <mxCell id="jYgsmMBTekUpaIYiXiGc-79" value="&lt;font style=&quot;font-size: 11px&quot;&gt;&lt;b&gt;: A cooperates with B&amp;nbsp;&lt;/b&gt;&lt;/font&gt;" style="text;html=1;strokeColor=none;fillColor=none;align=center;verticalAlign=middle;whiteSpace=wrap;rounded=0;fontFamily=Courier New;fontSize=11;" vertex="1" parent="1">
          <mxGeometry x="-1340" y="2467.5" width="180" height="30" as="geometry" />
        </mxCell>
        <mxCell id="jYgsmMBTekUpaIYiXiGc-80" value="" style="rounded=0;whiteSpace=wrap;html=1;fontFamily=Courier New;fontSize=11;strokeWidth=1;fillColor=none;" vertex="1" parent="1">
          <mxGeometry x="-1460" y="2410" width="300" height="90" as="geometry" />
        </mxCell>
        <mxCell id="jYgsmMBTekUpaIYiXiGc-81" value="&lt;b&gt;Sample&lt;/b&gt;" style="text;html=1;strokeColor=none;fillColor=none;align=center;verticalAlign=middle;whiteSpace=wrap;rounded=0;fontFamily=Courier New;fontSize=11;" vertex="1" parent="1">
          <mxGeometry x="-1460" y="2410" width="60" height="30" as="geometry" />
        </mxCell>
      </root>
    </mxGraphModel>
  </diagram>
</mxfile>
